<svg width="72" height="119" viewBox="0 0 72 119" fill="none" xmlns="http://www.w3.org/2000/svg">
<path fill-rule="evenodd" clip-rule="evenodd" d="M37.6361 22V24.4351H39.6361V22H37.6361ZM50 32.3639H47.5649L47.5649 34.3639H50V32.3639ZM45.8687 28.0335L47.9775 26.8159L48.9775 28.548L46.8687 29.7656L45.8687 28.0335ZM43.4521 23.0225L42.2345 25.1313L43.9666 26.1313L45.1841 24.0225L43.4521 23.0225ZM33.3056 26.1313L32.0881 24.0225L33.8201 23.0225L35.0377 25.1313L33.3056 26.1313ZM50 42.75C50 39.7235 48.2095 37.1301 45.6657 36.0442C45.981 35.2109 46.1536 34.3075 46.1536 33.3638C46.1536 29.1797 42.7617 25.7878 38.5776 25.7878C36.3591 25.7878 34.3633 26.7414 32.9778 28.2611C32.8194 28.2537 32.6601 28.25 32.5 28.25C26.701 28.25 22 33.1189 22 39.125C22 45.1311 26.701 50 32.5 50C32.5658 50 32.6315 49.9994 32.6971 49.9981V50H42.9949L43 50L43.0051 50H43.2414V49.9958C46.9956 49.864 50 46.6704 50 42.75ZM44.1536 33.3638C44.1536 34.1349 43.9971 34.8693 43.7141 35.5373C43.4793 35.5126 43.2411 35.5 43 35.5C42.8017 35.5 42.6053 35.5085 42.4111 35.5253C41.3046 32.257 38.7337 29.702 35.5134 28.7045C36.3927 28.1251 37.4458 27.7878 38.5776 27.7878C41.6571 27.7878 44.1536 30.2843 44.1536 33.3638ZM32.5 48L32.5411 47.9999V48L32.6971 48L42.9973 48H43L43.0043 48C45.6983 47.9976 48 45.7147 48 42.75C48 39.7838 45.6958 37.5 43 37.5C42.2698 37.5 41.5684 37.6675 40.9337 37.9708C40.8474 37.2839 40.685 36.6218 40.4555 35.9939L40.4577 35.993C39.2369 32.6095 36.0973 30.25 32.5 30.25C27.8712 30.25 24 34.1567 24 39.125C24 44.0933 27.8712 48 32.5 48Z" fill="white"/>
<path fill-rule="evenodd" clip-rule="evenodd" d="M37.6361 69V71.4351H39.6361V69H37.6361ZM50.0001 79.3639H47.5649L47.5649 81.3639H50.0001V79.3639ZM45.8687 75.0335L47.9776 73.8159L48.9776 75.548L46.8687 76.7656L45.8687 75.0335ZM43.4521 70.0225L42.2346 72.1313L43.9666 73.1313L45.1842 71.0225L43.4521 70.0225ZM33.3057 73.1313L32.0881 71.0225L33.8202 70.0225L35.0377 72.1313L33.3057 73.1313ZM44.1536 80.3638C44.1536 81.5604 43.7766 82.6689 43.1351 83.5772C43.8565 83.632 44.5431 83.8111 45.1736 84.0931C45.7974 82.9922 46.1536 81.7196 46.1536 80.3638C46.1536 76.1797 42.7617 72.7878 38.5776 72.7878C35.5731 72.7878 32.9772 74.5368 31.7522 77.0721L31.761 77.0721C32.499 77.0721 33.217 77.1574 33.9057 77.3188C34.901 75.7949 36.6217 74.7878 38.5776 74.7878C41.6571 74.7878 44.1536 77.2843 44.1536 80.3638Z" fill="url(#paint0_linear_9_1737)"/>
<path fill-rule="evenodd" clip-rule="evenodd" d="M32.5 95L32.5411 94.9999V95L32.6971 95L42.9973 95H43C43.0014 95 43.0028 95 43.0043 95C45.6983 94.9976 48 92.7147 48 89.75C48 86.7838 45.6958 84.5 43 84.5C42.2698 84.5 41.5684 84.6675 40.9337 84.9708C40.8474 84.2839 40.685 83.6218 40.4555 82.9939L40.4577 82.993C39.2369 79.6095 36.0973 77.25 32.5 77.25C27.8712 77.25 24 81.1567 24 86.125C24 91.0933 27.8712 95 32.5 95ZM43.2414 96.9958C46.9956 96.864 50 93.6704 50 89.75C50 85.7459 46.866 82.5 43 82.5C42.8017 82.5 42.6053 82.5085 42.4111 82.5253C40.9766 78.2883 37.0809 75.25 32.5 75.25C26.701 75.25 22 80.1189 22 86.125C22 92.1311 26.701 97 32.5 97C32.5658 97 32.6315 96.9994 32.6971 96.9981V97H42.9949C42.9966 97 42.9983 97 43 97C43.0017 97 43.0034 97 43.0051 97H43.2414V96.9958Z" fill="url(#paint1_linear_9_1737)"/>
<path fill-rule="evenodd" clip-rule="evenodd" d="M37.6361 69V71.4351H39.6361V69H37.6361ZM50.0001 79.3639H47.5649L47.5649 81.3639H50.0001V79.3639ZM45.8687 75.0335L47.9776 73.8159L48.9776 75.548L46.8687 76.7656L45.8687 75.0335ZM43.4521 70.0225L42.2346 72.1313L43.9666 73.1313L45.1842 71.0225L43.4521 70.0225ZM33.3057 73.1313L32.0881 71.0225L33.8202 70.0225L35.0377 72.1313L33.3057 73.1313ZM44.1536 80.3638C44.1536 81.5604 43.7766 82.6689 43.1351 83.5772C43.8565 83.632 44.5431 83.8111 45.1736 84.0931C45.7974 82.9922 46.1536 81.7196 46.1536 80.3638C46.1536 76.1797 42.7617 72.7878 38.5776 72.7878C35.5731 72.7878 32.9772 74.5368 31.7522 77.0721L31.761 77.0721C32.499 77.0721 33.217 77.1574 33.9057 77.3188C34.901 75.7949 36.6217 74.7878 38.5776 74.7878C41.6571 74.7878 44.1536 77.2843 44.1536 80.3638Z" fill="url(#paint2_linear_9_1737)"/>
<path fill-rule="evenodd" clip-rule="evenodd" d="M32.5 95L32.5411 94.9999V95L32.6971 95L42.9973 95H43C43.0014 95 43.0028 95 43.0043 95C45.6983 94.9976 48 92.7147 48 89.75C48 86.7838 45.6958 84.5 43 84.5C42.2698 84.5 41.5684 84.6675 40.9337 84.9708C40.8474 84.2839 40.685 83.6218 40.4555 82.9939L40.4577 82.993C39.2369 79.6095 36.0973 77.25 32.5 77.25C27.8712 77.25 24 81.1567 24 86.125C24 91.0933 27.8712 95 32.5 95ZM43.2414 96.9958C46.9956 96.864 50 93.6704 50 89.75C50 85.7459 46.866 82.5 43 82.5C42.8017 82.5 42.6053 82.5085 42.4111 82.5253C40.9766 78.2883 37.0809 75.25 32.5 75.25C26.701 75.25 22 80.1189 22 86.125C22 92.1311 26.701 97 32.5 97C32.5658 97 32.6315 96.9994 32.6971 96.9981V97H42.9949C42.9966 97 42.9983 97 43 97C43.0017 97 43.0034 97 43.0051 97H43.2414V96.9958Z" fill="url(#paint3_linear_9_1737)"/>
<rect x="0.5" y="0.5" width="71" height="118" rx="4.5" stroke="#7B61FF" stroke-dasharray="10 5"/>
<defs>
<linearGradient id="paint0_linear_9_1737" x1="40.8761" y1="69" x2="40.8761" y2="84.0931" gradientUnits="userSpaceOnUse">
<stop stop-color="#EFC977"/>
<stop offset="1" stop-color="#E07256"/>
</linearGradient>
<linearGradient id="paint1_linear_9_1737" x1="36" y1="75.25" x2="36" y2="97" gradientUnits="userSpaceOnUse">
<stop stop-color="#B2D4F7"/>
<stop offset="1" stop-color="#D9E2F3"/>
</linearGradient>
<linearGradient id="paint2_linear_9_1737" x1="40.8761" y1="69" x2="40.8761" y2="84.0931" gradientUnits="userSpaceOnUse">
<stop stop-color="#EFC977"/>
<stop offset="1" stop-color="#E07256"/>
</linearGradient>
<linearGradient id="paint3_linear_9_1737" x1="36" y1="75.25" x2="36" y2="97" gradientUnits="userSpaceOnUse">
<stop stop-color="#B2D4F7"/>
<stop offset="1" stop-color="#D9E2F3"/>
</linearGradient>
</defs>
</svg>
