<svg width="72" height="119" viewBox="0 0 72 119" fill="none" xmlns="http://www.w3.org/2000/svg">
<path fill-rule="evenodd" clip-rule="evenodd" d="M35 25V22H37V25H35ZM42.8619 41.8239C43.573 42.6875 44 43.7938 44 44.9999C44 47.7613 41.7614 49.9999 39 49.9999L38.9634 49.9998H31.5388V49.9997L31.5 49.9998C27.3579 49.9998 24 46.6419 24 42.4998C24 40.0402 25.184 37.8571 27.0131 36.4894C27.0044 36.3274 27 36.1642 27 36C27 31.0294 31.0294 27 36 27C40.9706 27 45 31.0294 45 36C45 38.221 44.1955 40.2542 42.8619 41.8239ZM41.3082 40.5634C40.6177 40.2034 39.8326 39.9999 39 39.9999C38.1545 39.9999 37.358 40.2097 36.6598 40.5802C36.8825 41.1779 37.0042 41.8247 37.0042 42.5C37.0042 42.5891 37.0021 42.6776 36.9979 42.7657C37.5289 42.2895 38.2306 41.9999 39 41.9999C40.6569 41.9999 42 43.343 42 44.9999C42 46.6567 40.6569 47.9999 39 47.9999V47.9998H38.9716L38.9332 47.9992H31.5833C31.5556 47.9996 31.5278 47.9998 31.5 47.9998C28.4624 47.9998 26 45.5373 26 42.4998C26 39.4622 28.4624 36.9998 31.5 36.9998C33.8631 36.9998 35.878 38.49 36.6564 40.5819C37.2385 40.2725 37.889 40.0748 38.5794 40.0173C37.5548 37.0951 34.7721 34.9998 31.5 34.9998C30.6323 34.9998 29.799 35.1471 29.0238 35.4181C29.3196 31.8244 32.3299 29 36 29C39.866 29 43 32.134 43 36C43 37.7434 42.3626 39.338 41.3082 40.5634ZM50 35H47V37H50V35ZM45.0263 29.634L47.6243 28.134L48.6243 29.866L46.0263 31.366L45.0263 29.634ZM42.134 23.3757L40.634 25.9738L42.3661 26.9738L43.8661 24.3757L42.134 23.3757ZM29.634 26.9738L28.134 24.3757L29.866 23.3757L31.366 25.9738L29.634 26.9738ZM23.3757 29.866L25.9737 31.366L26.9737 29.634L24.3757 28.134L23.3757 29.866ZM22 35H25V37H22V35ZM45.0263 42.366L47.6244 43.866L48.6244 42.134L46.0263 40.634L45.0263 42.366Z" fill="white"/>
<path fill-rule="evenodd" clip-rule="evenodd" d="M35 69V72H37V69H35ZM40.6124 88.2657C42.0759 86.9827 43 85.0992 43 83C43 79.134 39.866 76 36 76C32.134 76 29 79.134 29 83C29 83.1418 29.0042 83.2826 29.0125 83.4223C28.3278 83.663 27.6885 84.0002 27.111 84.4176C27.0379 83.9558 27 83.4824 27 83C27 78.0294 31.0294 74 36 74C40.9706 74 45 78.0294 45 83C45 85.4685 44.0062 87.7049 42.3968 89.3309C41.8886 88.8603 41.2825 88.4938 40.6124 88.2657ZM47 82H50V84H47V82ZM47.6243 75.134L45.0263 76.634L46.0263 78.366L48.6243 76.866L47.6243 75.134ZM40.634 72.9738L42.134 70.3757L43.8661 71.3757L42.3661 73.9738L40.634 72.9738ZM28.134 71.3757L29.634 73.9738L31.366 72.9738L29.866 70.3757L28.134 71.3757ZM25.9737 78.366L23.3757 76.866L24.3757 75.134L26.9737 76.634L25.9737 78.366ZM25 82H22V84H25V82ZM47.6244 90.866L45.0263 89.366L46.0263 87.634L48.6244 89.134L47.6244 90.866Z" fill="url(#paint0_linear_9_1448)"/>
<path fill-rule="evenodd" clip-rule="evenodd" d="M31.5 94.9998C31.5278 94.9998 31.5556 94.9996 31.5833 94.9992H38.9332C38.946 94.9994 38.9588 94.9996 38.9716 94.9998H39V94.9999C39 94.9999 39 94.9999 39 94.9999C40.6569 94.9999 42 93.6567 42 91.9999C42 90.343 40.6569 88.9999 39 88.9999C38.2306 88.9999 37.5289 89.2895 36.9979 89.7657C37.0021 89.6776 37.0042 89.5891 37.0042 89.5C37.0042 88.8247 36.8825 88.1779 36.6598 87.5802C37.358 87.2097 38.1545 86.9999 39 86.9999C41.7614 86.9999 44 89.2385 44 91.9999C44 94.7613 41.7614 96.9999 39 96.9999C38.9878 96.9999 38.9756 96.9998 38.9634 96.9998L31.5388 96.9998V96.9997C31.5258 96.9997 31.5129 96.9998 31.5 96.9998C27.3579 96.9998 24 93.6419 24 89.4998C24 85.3576 27.3579 81.9998 31.5 81.9998C34.7721 81.9998 37.5548 84.0951 38.5794 87.0173C37.889 87.0748 37.2385 87.2725 36.6564 87.5819C35.878 85.49 33.8631 83.9998 31.5 83.9998C28.4624 83.9998 26 86.4622 26 89.4998C26 92.5373 28.4624 94.9998 31.5 94.9998Z" fill="url(#paint1_linear_9_1448)"/>
<rect x="0.5" y="0.5" width="71" height="118" rx="4.5" stroke="#7B61FF" stroke-dasharray="10 5"/>
<defs>
<linearGradient id="paint0_linear_9_1448" x1="36" y1="69" x2="36" y2="90.866" gradientUnits="userSpaceOnUse">
<stop stop-color="#EFC977"/>
<stop offset="1" stop-color="#E07256"/>
</linearGradient>
<linearGradient id="paint1_linear_9_1448" x1="34" y1="81.9998" x2="34" y2="96.9999" gradientUnits="userSpaceOnUse">
<stop stop-color="#B2D4F7"/>
<stop offset="1" stop-color="#D9E2F3"/>
</linearGradient>
</defs>
</svg>
